<svg width="800" height="600" viewBox="0 0 800 600" xmlns="http://www.w3.org/2000/svg">
  <!-- Circuit Board Background Pattern -->
  <defs>
    <!-- Gradient for nodes -->
    <linearGradient id="nodeGradient" x1="0%" y1="0%" x2="100%" y2="100%">
      <stop offset="0%" stop-color="#50C9F2" stop-opacity="0.8"/>
      <stop offset="100%" stop-color="#8C5FFF" stop-opacity="0.8"/>
    </linearGradient>
    
    <!-- Glow filter -->
    <filter id="glow" x="-50%" y="-50%" width="200%" height="200%">
      <feGaussianBlur stdDeviation="1.5" result="blur"/>
      <feComposite in="SourceGraphic" in2="blur" operator="over"/>
    </filter>
  </defs>
  
  <!-- Background -->
  <rect width="800" height="600" fill="none"/>
  
  <!-- Horizontal Lines -->
  <g stroke="#1C1C2E" stroke-width="1.5" opacity="0.4">
    <line x1="0" y1="100" x2="800" y2="100" />
    <line x1="0" y1="200" x2="800" y2="200" />
    <line x1="0" y1="300" x2="800" y2="300" />
    <line x1="0" y1="400" x2="800" y2="400" />
    <line x1="0" y1="500" x2="800" y2="500" />
  </g>
  
  <!-- Vertical Lines -->
  <g stroke="#1C1C2E" stroke-width="1.5" opacity="0.4">
    <line x1="100" y1="0" x2="100" y2="600" />
    <line x1="200" y1="0" x2="200" y2="600" />
    <line x1="300" y1="0" x2="300" y2="600" />
    <line x1="400" y1="0" x2="400" y2="600" />
    <line x1="500" y1="0" x2="500" y2="600" />
    <line x1="600" y1="0" x2="600" y2="600" />
    <line x1="700" y1="0" x2="700" y2="600" />
  </g>
  
  <!-- Circuit Paths -->
  <g stroke="#50C9F2" stroke-width="2" fill="none" opacity="0.6">
    <!-- Path 1 -->
    <path d="M0,100 H100 V300 H300 V200 H500 V400 H700 V600" />
    
    <!-- Path 2 -->
    <path d="M0,300 H200 V500 H400 V300 H600 V100 H800" />
    
    <!-- Path 3 -->
    <path d="M0,500 H300 V100 H500 V500 H800" />
    
    <!-- Path 4 -->
    <path d="M200,0 V200 H400 V400 H600 V200 H800" />
    
    <!-- Path 5 -->
    <path d="M400,0 V100 H200 V400 H500 V600" />
    
    <!-- Path 6 -->
    <path d="M600,0 V300 H700 V500 H800" />
  </g>
  
  <!-- Circuit Nodes -->
  <g>
    <!-- Intersection Nodes -->
    <circle cx="100" cy="100" r="4" fill="url(#nodeGradient)" filter="url(#glow)" />
    <circle cx="100" cy="300" r="4" fill="url(#nodeGradient)" filter="url(#glow)" />
    <circle cx="200" cy="200" r="4" fill="url(#nodeGradient)" filter="url(#glow)" />
    <circle cx="200" cy="300" r="4" fill="url(#nodeGradient)" filter="url(#glow)" />
    <circle cx="200" cy="400" r="4" fill="url(#nodeGradient)" filter="url(#glow)" />
    <circle cx="200" cy="500" r="4" fill="url(#nodeGradient)" filter="url(#glow)" />
    <circle cx="300" cy="100" r="4" fill="url(#nodeGradient)" filter="url(#glow)" />
    <circle cx="300" cy="200" r="4" fill="url(#nodeGradient)" filter="url(#glow)" />
    <circle cx="300" cy="300" r="4" fill="url(#nodeGradient)" filter="url(#glow)" />
    <circle cx="300" cy="500" r="4" fill="url(#nodeGradient)" filter="url(#glow)" />
    <circle cx="400" cy="100" r="4" fill="url(#nodeGradient)" filter="url(#glow)" />
    <circle cx="400" cy="200" r="4" fill="url(#nodeGradient)" filter="url(#glow)" />
    <circle cx="400" cy="300" r="4" fill="url(#nodeGradient)" filter="url(#glow)" />
    <circle cx="400" cy="400" r="4" fill="url(#nodeGradient)" filter="url(#glow)" />
    <circle cx="400" cy="500" r="4" fill="url(#nodeGradient)" filter="url(#glow)" />
    <circle cx="500" cy="100" r="4" fill="url(#nodeGradient)" filter="url(#glow)" />
    <circle cx="500" cy="200" r="4" fill="url(#nodeGradient)" filter="url(#glow)" />
    <circle cx="500" cy="300" r="4" fill="url(#nodeGradient)" filter="url(#glow)" />
    <circle cx="500" cy="400" r="4" fill="url(#nodeGradient)" filter="url(#glow)" />
    <circle cx="500" cy="500" r="4" fill="url(#nodeGradient)" filter="url(#glow)" />
    <circle cx="600" cy="100" r="4" fill="url(#nodeGradient)" filter="url(#glow)" />
    <circle cx="600" cy="200" r="4" fill="url(#nodeGradient)" filter="url(#glow)" />
    <circle cx="600" cy="300" r="4" fill="url(#nodeGradient)" filter="url(#glow)" />
    <circle cx="600" cy="400" r="4" fill="url(#nodeGradient)" filter="url(#glow)" />
    <circle cx="700" cy="300" r="4" fill="url(#nodeGradient)" filter="url(#glow)" />
    <circle cx="700" cy="400" r="4" fill="url(#nodeGradient)" filter="url(#glow)" />
    <circle cx="700" cy="500" r="4" fill="url(#nodeGradient)" filter="url(#glow)" />
  </g>
  
  <!-- Animated Data Flow -->
  <g>
    <!-- Path 1 Animation -->
    <circle r="3" fill="#50C9F2">
      <animate attributeName="cx" values="0;100;100;300;300;500;500;700;700" dur="5s" repeatCount="indefinite" />
      <animate attributeName="cy" values="100;100;300;300;200;200;400;400;600" dur="5s" repeatCount="indefinite" />
    </circle>
    
    <!-- Path 2 Animation -->
    <circle r="3" fill="#8C5FFF">
      <animate attributeName="cx" values="0;200;200;400;400;600;600;800" dur="6s" repeatCount="indefinite" />
      <animate attributeName="cy" values="300;300;500;500;300;300;100;100" dur="6s" repeatCount="indefinite" />
    </circle>
    
    <!-- Path 3 Animation -->
    <circle r="3" fill="#50C9F2">
      <animate attributeName="cx" values="0;300;300;500;500;800" dur="4s" repeatCount="indefinite" />
      <animate attributeName="cy" values="500;500;100;100;500;500" dur="4s" repeatCount="indefinite" />
    </circle>
    
    <!-- Path 4 Animation -->
    <circle r="3" fill="#8C5FFF">
      <animate attributeName="cx" values="200;200;400;400;600;600;800" dur="5.5s" repeatCount="indefinite" />
      <animate attributeName="cy" values="0;200;200;400;400;200;200" dur="5.5s" repeatCount="indefinite" />
    </circle>
    
    <!-- Path 5 Animation -->
    <circle r="3" fill="#50C9F2">
      <animate attributeName="cx" values="400;400;200;200;500;500" dur="4.5s" repeatCount="indefinite" />
      <animate attributeName="cy" values="0;100;100;400;400;600" dur="4.5s" repeatCount="indefinite" />
    </circle>
    
    <!-- Path 6 Animation -->
    <circle r="3" fill="#8C5FFF">
      <animate attributeName="cx" values="600;600;700;700;800" dur="3.5s" repeatCount="indefinite" />
      <animate attributeName="cy" values="0;300;300;500;500" dur="3.5s" repeatCount="indefinite" />
    </circle>
  </g>
  
  <!-- Pulsing Nodes -->
  <g>
    <circle cx="300" cy="300" r="6" fill="#50C9F2" opacity="0.6">
      <animate attributeName="r" values="6;10;6" dur="2s" repeatCount="indefinite" />
      <animate attributeName="opacity" values="0.6;0.2;0.6" dur="2s" repeatCount="indefinite" />
    </circle>
    
    <circle cx="500" cy="300" r="6" fill="#8C5FFF" opacity="0.6">
      <animate attributeName="r" values="6;10;6" dur="3s" repeatCount="indefinite" />
      <animate attributeName="opacity" values="0.6;0.2;0.6" dur="3s" repeatCount="indefinite" />
    </circle>
    
    <circle cx="400" cy="200" r="6" fill="#50C9F2" opacity="0.6">
      <animate attributeName="r" values="6;10;6" dur="2.5s" repeatCount="indefinite" />
      <animate attributeName="opacity" values="0.6;0.2;0.6" dur="2.5s" repeatCount="indefinite" />
    </circle>
  </g>
</svg>