<svg width="120" height="120" viewBox="0 0 120 120" xmlns="http://www.w3.org/2000/svg">
  <!-- Cloud Computing Service Icon -->
  <defs>
    <!-- Gradients -->
    <linearGradient id="iconGradient" x1="0%" y1="0%" x2="100%" y2="100%">
      <stop offset="0%" stop-color="#FF5F8C" stop-opacity="1"/>
      <stop offset="100%" stop-color="#C04767" stop-opacity="0.8"/>
    </linearGradient>
    
    <!-- Glow filter -->
    <filter id="glow" x="-50%" y="-50%" width="200%" height="200%">
      <feGaussianBlur stdDeviation="2" result="blur"/>
      <feComposite in="SourceGraphic" in2="blur" operator="over"/>
    </filter>
  </defs>
  
  <!-- Background Circle -->
  <circle cx="60" cy="60" r="50" fill="#0B0B1F" stroke="url(#iconGradient)" stroke-width="2" filter="url(#glow)"/>
  
  <!-- Cloud Computing Icon -->
  <g transform="translate(25, 30)" fill="none" stroke="url(#iconGradient)" stroke-width="2" filter="url(#glow)">
    <!-- Cloud Shape -->
    <path d="M20,20 C20,13 25,10 30,10 C35,10 40,15 45,15 C55,15 60,10 65,15 C70,20 70,25 65,30 C65,35 60,40 50,40 C45,40 40,35 35,35 C25,35 20,40 15,35 C10,30 10,25 20,20 Z" stroke-opacity="0.8" />
    
    <!-- Server Racks Inside -->
    <rect x="30" y="20" width="10" height="15" rx="1" ry="1" fill="#FF5F8C" fill-opacity="0.2" />
    
    <!-- Server Lights -->
    <circle cx="33" cy="23" r="1" fill="#FF5F8C">
      <animate attributeName="opacity" values="1;0.5;1" dur="1s" repeatCount="indefinite"/>
    </circle>
    <circle cx="33" cy="27" r="1" fill="#FF5F8C">
      <animate attributeName="opacity" values="0.5;1;0.5" dur="1.3s" repeatCount="indefinite"/>
    </circle>
    <circle cx="33" cy="31" r="1" fill="#FF5F8C">
      <animate attributeName="opacity" values="0.7;1;0.7" dur="0.8s" repeatCount="indefinite"/>
    </circle>
    
    <!-- Connection Lines -->
    <g stroke-dasharray="2 1" stroke-opacity="0.6" stroke-width="1.5">
      <!-- Upload/Download Arrows -->
      <path d="M15,50 L15,45 L10,45 L20,35 L30,45 L25,45 L25,50" />
      <path d="M45,50 L45,45 L40,45 L50,35 L60,45 L55,45 L55,50" />
    </g>
    
    <!-- Data Flow Animation -->
    <circle cx="20" cy="42" r="1.5" fill="#FF5F8C">
      <animate attributeName="cy" values="50;35;50" dur="2s" repeatCount="indefinite"/>
      <animate attributeName="opacity" values="0;1;0" dur="2s" repeatCount="indefinite"/>
    </circle>
    
    <circle cx="50" cy="42" r="1.5" fill="#FF5F8C">
      <animate attributeName="cy" values="35;50;35" dur="2s" repeatCount="indefinite"/>
      <animate attributeName="opacity" values="0;1;0" dur="2s" repeatCount="indefinite"/>
    </circle>
  </g>
  
  <!-- Connected Devices -->
  <g transform="translate(30, 85)" fill="none" stroke="url(#iconGradient)" stroke-width="1.5" stroke-opacity="0.7">
    <!-- Devices -->
    <rect x="0" y="0" width="8" height="5" rx="1" ry="1" />
    <rect x="15" y="0" width="8" height="5" rx="1" ry="1" />
    <rect x="30" y="0" width="8" height="5" rx="1" ry="1" />
    <rect x="45" y="0" width="8" height="5" rx="1" ry="1" />
    
    <!-- Connection Lines to Cloud -->
    <line x1="4" y1="0" x2="4" y2="-5" stroke-dasharray="1 1" />
    <line x1="19" y1="0" x2="19" y2="-5" stroke-dasharray="1 1" />
    <line x1="34" y1="0" x2="34" y2="-5" stroke-dasharray="1 1" />
    <line x1="49" y1="0" x2="49" y2="-5" stroke-dasharray="1 1" />
    
    <line x1="4" y1="-5" x2="49" y2="-5" stroke-dasharray="1 1" />
    <line x1="25" y1="-5" x2="25" y2="-10" stroke-dasharray="1 1" />
  </g>
  
  <!-- Pulsing Effect -->
  <circle cx="60" cy="60" r="55" fill="none" stroke="url(#iconGradient)" stroke-width="1" opacity="0.3">
    <animate attributeName="r" values="55;60;55" dur="3s" repeatCount="indefinite"/>
    <animate attributeName="opacity" values="0.3;0.1;0.3" dur="3s" repeatCount="indefinite"/>
  </circle>
</svg>