<svg width="120" height="120" viewBox="0 0 120 120" xmlns="http://www.w3.org/2000/svg">
  <!-- Web Development Service Icon -->
  <defs>
    <!-- Gradients -->
    <linearGradient id="iconGradient" x1="0%" y1="0%" x2="100%" y2="100%">
      <stop offset="0%" stop-color="#00FFB2" stop-opacity="1"/>
      <stop offset="100%" stop-color="#00CC8E" stop-opacity="0.8"/>
    </linearGradient>
    
    <!-- Glow filter -->
    <filter id="glow" x="-50%" y="-50%" width="200%" height="200%">
      <feGaussianBlur stdDeviation="2" result="blur"/>
      <feComposite in="SourceGraphic" in2="blur" operator="over"/>
    </filter>
  </defs>
  
  <!-- Background Circle -->
  <circle cx="60" cy="60" r="50" fill="#0B0B1F" stroke="url(#iconGradient)" stroke-width="2" filter="url(#glow)"/>
  
  <!-- Web Development Icon -->
  <g transform="translate(25, 30)" fill="none" stroke="url(#iconGradient)" stroke-width="2" filter="url(#glow)">
    <!-- Browser Window -->
    <rect x="0" y="0" width="70" height="50" rx="3" ry="3" />
    
    <!-- Browser Header -->
    <line x1="0" y1="10" x2="70" y2="10" />
    
    <!-- Browser Controls -->
    <circle cx="5" cy="5" r="2" fill="#00FFB2" />
    <circle cx="12" cy="5" r="2" fill="#00FFB2" />
    <circle cx="19" cy="5" r="2" fill="#00FFB2" />
    
    <!-- Address Bar -->
    <rect x="25" y="3" width="40" height="4" rx="1" ry="1" fill="#00FFB2" fill-opacity="0.3" />
    
    <!-- Code Elements -->
    <g stroke-opacity="0.8" stroke-width="1.5">
      <!-- Left Bracket -->
      <path d="M15,20 L10,30 L15,40" />
      
      <!-- Right Bracket -->
      <path d="M55,20 L60,30 L55,40" />
      
      <!-- Code Lines -->
      <line x1="20" y1="25" x2="35" y2="25" stroke-dasharray="1 1" />
      <line x1="20" y1="30" x2="50" y2="30" stroke-dasharray="1 1" />
      <line x1="20" y1="35" x2="40" y2="35" stroke-dasharray="1 1" />
    </g>
    
    <!-- Animated Cursor -->
    <rect x="40" y="30" width="1" height="10" fill="#00FFB2">
      <animate attributeName="opacity" values="1;0;1" dur="1s" repeatCount="indefinite"/>
    </rect>
  </g>
  
  <!-- Responsive Design Elements -->
  <g transform="translate(35, 85)" fill="none" stroke="url(#iconGradient)" stroke-width="1.5" stroke-opacity="0.7">
    <!-- Desktop -->
    <rect x="0" y="0" width="15" height="10" rx="1" ry="1" />
    
    <!-- Tablet -->
    <rect x="20" y="2" width="10" height="8" rx="1" ry="1" />
    
    <!-- Mobile -->
    <rect x="35" y="3" width="5" height="7" rx="1" ry="1" />
    
    <!-- Connection Lines -->
    <line x1="15" y1="5" x2="20" y2="5" stroke-dasharray="1 1" />
    <line x1="30" y1="5" x2="35" y2="5" stroke-dasharray="1 1" />
  </g>
  
  <!-- Pulsing Effect -->
  <circle cx="60" cy="60" r="55" fill="none" stroke="url(#iconGradient)" stroke-width="1" opacity="0.3">
    <animate attributeName="r" values="55;60;55" dur="3s" repeatCount="indefinite"/>
    <animate attributeName="opacity" values="0.3;0.1;0.3" dur="3s" repeatCount="indefinite"/>
  </circle>
</svg>