<svg width="40" height="40" viewBox="0 0 40 40" xmlns="http://www.w3.org/2000/svg">
  <!-- Social Media Icon: Twitter/X -->
  <defs>
    <!-- Gradients -->
    <linearGradient id="iconGradient" x1="0%" y1="0%" x2="100%" y2="100%">
      <stop offset="0%" stop-color="#50C9F2" stop-opacity="1"/>
      <stop offset="100%" stop-color="#3A95B3" stop-opacity="0.8"/>
    </linearGradient>
    
    <!-- Glow filter -->
    <filter id="glow" x="-50%" y="-50%" width="200%" height="200%">
      <feGaussianBlur stdDeviation="1" result="blur"/>
      <feComposite in="SourceGraphic" in2="blur" operator="over"/>
    </filter>
  </defs>
  
  <!-- Background Circle -->
  <circle cx="20" cy="20" r="18" fill="#151538" stroke="url(#iconGradient)" stroke-width="1" opacity="0.9"/>
  
  <!-- Twitter/X Icon -->
  <path d="M28,13.5c-0.7,0.3-1.5,0.5-2.4,0.6c0.8-0.5,1.5-1.3,1.8-2.3c-0.8,0.5-1.7,0.8-2.6,1c-0.7-0.8-1.8-1.3-3-1.3c-2.3,0-4.1,1.8-4.1,4.1c0,0.3,0,0.6,0.1,0.9c-3.4-0.2-6.4-1.8-8.4-4.3c-0.4,0.6-0.6,1.3-0.6,2.1c0,1.4,0.7,2.7,1.8,3.4c-0.7,0-1.3-0.2-1.8-0.5v0.1c0,2,1.4,3.6,3.3,4c-0.3,0.1-0.7,0.1-1.1,0.1c-0.3,0-0.5,0-0.8-0.1c0.5,1.6,2,2.8,3.8,2.8c-1.4,1.1-3.2,1.8-5.1,1.8c-0.3,0-0.7,0-1-0.1c1.8,1.2,4,1.8,6.3,1.8c7.5,0,11.7-6.3,11.7-11.7c0-0.2,0-0.4,0-0.5C26.8,15,27.5,14.3,28,13.5z" fill="url(#iconGradient)" filter="url(#glow)"/>
  
  <!-- Hover Animation -->
  <circle cx="20" cy="20" r="18" fill="none" stroke="url(#iconGradient)" stroke-width="1" opacity="0">
    <animate attributeName="opacity" values="0;0.3;0" dur="2s" begin="mouseover" repeatCount="indefinite"/>
    <animate attributeName="r" values="18;20;18" dur="2s" begin="mouseover" repeatCount="indefinite"/>
  </circle>
</svg>