<svg width="40" height="40" viewBox="0 0 40 40" xmlns="http://www.w3.org/2000/svg">
  <!-- Social Media Icon: GitHub -->
  <defs>
    <!-- Gradients -->
    <linearGradient id="iconGradient" x1="0%" y1="0%" x2="100%" y2="100%">
      <stop offset="0%" stop-color="#50C9F2" stop-opacity="1"/>
      <stop offset="100%" stop-color="#3A95B3" stop-opacity="0.8"/>
    </linearGradient>
    
    <!-- Glow filter -->
    <filter id="glow" x="-50%" y="-50%" width="200%" height="200%">
      <feGaussianBlur stdDeviation="1" result="blur"/>
      <feComposite in="SourceGraphic" in2="blur" operator="over"/>
    </filter>
  </defs>
  
  <!-- Background Circle -->
  <circle cx="20" cy="20" r="18" fill="#151538" stroke="url(#iconGradient)" stroke-width="1" opacity="0.9"/>
  
  <!-- GitHub Icon -->
  <path d="M20,11c-5,0-9,4-9,9c0,4,2.6,7.4,6.2,8.6c0.5,0.1,0.6-0.2,0.6-0.4c0-0.2,0-0.9,0-1.7c-2.5,0.5-3.1-1.1-3.1-1.1c-0.4-1-1-1.3-1-1.3c-0.8-0.6,0.1-0.5,0.1-0.5c0.9,0.1,1.4,0.9,1.4,0.9c0.8,1.4,2.1,1,2.6,0.8c0.1-0.6,0.3-1,0.6-1.2c-2-0.2-4.1-1-4.1-4.5c0-1,0.4-1.8,0.9-2.4c-0.1-0.2-0.4-1.1,0.1-2.3c0,0,0.8-0.2,2.5,0.9c0.7-0.2,1.5-0.3,2.3-0.3c0.8,0,1.5,0.1,2.3,0.3c1.7-1.2,2.5-0.9,2.5-0.9c0.5,1.2,0.2,2.1,0.1,2.3c0.6,0.6,0.9,1.4,0.9,2.4c0,3.5-2.1,4.2-4.1,4.5c0.3,0.3,0.6,0.8,0.6,1.7c0,1.2,0,2.2,0,2.5c0,0.2,0.2,0.5,0.6,0.4c3.6-1.2,6.2-4.6,6.2-8.6C29,15,25,11,20,11z" fill="url(#iconGradient)" filter="url(#glow)"/>
  
  <!-- Hover Animation -->
  <circle cx="20" cy="20" r="18" fill="none" stroke="url(#iconGradient)" stroke-width="1" opacity="0">
    <animate attributeName="opacity" values="0;0.3;0" dur="2s" begin="mouseover" repeatCount="indefinite"/>
    <animate attributeName="r" values="18;20;18" dur="2s" begin="mouseover" repeatCount="indefinite"/>
  </circle>
</svg>