<svg width="40" height="40" viewBox="0 0 40 40" xmlns="http://www.w3.org/2000/svg">
  <!-- Social Media Icon: YouTube -->
  <defs>
    <!-- Gradients -->
    <linearGradient id="iconGradient" x1="0%" y1="0%" x2="100%" y2="100%">
      <stop offset="0%" stop-color="#50C9F2" stop-opacity="1"/>
      <stop offset="100%" stop-color="#3A95B3" stop-opacity="0.8"/>
    </linearGradient>
    
    <!-- Glow filter -->
    <filter id="glow" x="-50%" y="-50%" width="200%" height="200%">
      <feGaussianBlur stdDeviation="1" result="blur"/>
      <feComposite in="SourceGraphic" in2="blur" operator="over"/>
    </filter>
  </defs>
  
  <!-- Background Circle -->
  <circle cx="20" cy="20" r="18" fill="#151538" stroke="url(#iconGradient)" stroke-width="1" opacity="0.9"/>
  
  <!-- YouTube Icon -->
  <g fill="url(#iconGradient)" filter="url(#glow)">
    <!-- YouTube Play Button -->
    <path d="M28.5,15.5c-0.2-0.7-0.7-1.3-1.4-1.4c-1.2-0.3-6.1-0.3-6.1-0.3s-4.9,0-6.1,0.3c-0.7,0.2-1.2,0.7-1.4,1.4c-0.3,1.2-0.3,3.7-0.3,3.7s0,2.5,0.3,3.7c0.2,0.7,0.7,1.3,1.4,1.4c1.2,0.3,6.1,0.3,6.1,0.3s4.9,0,6.1-0.3c0.7-0.2,1.2-0.7,1.4-1.4c0.3-1.2,0.3-3.7,0.3-3.7S28.8,16.7,28.5,15.5z M18,21.5v-4.6l4.1,2.3L18,21.5z"/>
  </g>
  
  <!-- Hover Animation -->
  <circle cx="20" cy="20" r="18" fill="none" stroke="url(#iconGradient)" stroke-width="1" opacity="0">
    <animate attributeName="opacity" values="0;0.3;0" dur="2s" begin="mouseover" repeatCount="indefinite"/>
    <animate attributeName="r" values="18;20;18" dur="2s" begin="mouseover" repeatCount="indefinite"/>
  </circle>
</svg>