<svg width="40" height="40" viewBox="0 0 40 40" xmlns="http://www.w3.org/2000/svg">
  <!-- Social Media Icon: Instagram -->
  <defs>
    <!-- Gradients -->
    <linearGradient id="iconGradient" x1="0%" y1="0%" x2="100%" y2="100%">
      <stop offset="0%" stop-color="#50C9F2" stop-opacity="1"/>
      <stop offset="100%" stop-color="#3A95B3" stop-opacity="0.8"/>
    </linearGradient>
    
    <!-- Glow filter -->
    <filter id="glow" x="-50%" y="-50%" width="200%" height="200%">
      <feGaussianBlur stdDeviation="1" result="blur"/>
      <feComposite in="SourceGraphic" in2="blur" operator="over"/>
    </filter>
  </defs>
  
  <!-- Background Circle -->
  <circle cx="20" cy="20" r="18" fill="#151538" stroke="url(#iconGradient)" stroke-width="1" opacity="0.9"/>
  
  <!-- Instagram Icon -->
  <g fill="url(#iconGradient)" filter="url(#glow)">
    <!-- Camera Outline -->
    <path d="M25.2,11h-10.4c-2.1,0-3.8,1.7-3.8,3.8v10.4c0,2.1,1.7,3.8,3.8,3.8h10.4c2.1,0,3.8-1.7,3.8-3.8v-10.4C29,12.7,27.3,11,25.2,11z M27,25.2c0,1-0.8,1.8-1.8,1.8h-10.4c-1,0-1.8-0.8-1.8-1.8v-10.4c0-1,0.8-1.8,1.8-1.8h10.4c1,0,1.8,0.8,1.8,1.8V25.2z"/>
    
    <!-- Camera Lens -->
    <path d="M20,15.5c-2.5,0-4.5,2-4.5,4.5s2,4.5,4.5,4.5s4.5-2,4.5-4.5S22.5,15.5,20,15.5z M20,22.5c-1.4,0-2.5-1.1-2.5-2.5s1.1-2.5,2.5-2.5s2.5,1.1,2.5,2.5S21.4,22.5,20,22.5z"/>
    
    <!-- Camera Dot -->
    <circle cx="24.8" cy="15.2" r="0.8"/>
  </g>
  
  <!-- Hover Animation -->
  <circle cx="20" cy="20" r="18" fill="none" stroke="url(#iconGradient)" stroke-width="1" opacity="0">
    <animate attributeName="opacity" values="0;0.3;0" dur="2s" begin="mouseover" repeatCount="indefinite"/>
    <animate attributeName="r" values="18;20;18" dur="2s" begin="mouseover" repeatCount="indefinite"/>
  </circle>
</svg>